{
    "asset" : {
        "generator" : "Khronos glTF Blender I/O v1.6.16",
        "version" : "2.0"
    },
    "scene" : 0,
    "scenes" : [
        {
            "name" : "Scene",
            "nodes" : [
                16
            ]
        }
    ],
    "nodes" : [
        {
            "mesh" : 0,
            "name" : "AlarmArm_QuartzClock_0"
        },
        {
            "children" : [
                0
            ],
            "name" : "AlarmArm",
            "rotation" : [
                0.8651352524757385,
                0,
                0,
                0.5015386939048767
            ],
            "translation" : [
                0.016251424327492714,
                0,
                0.050170544534921646
            ]
        },
        {
            "mesh" : 1,
            "name" : "Case_QuartzClock_0"
        },
        {
            "children" : [
                2
            ],
            "name" : "Case"
        },
        {
            "mesh" : 2,
            "name" : "Glass_QuartzClock_0"
        },
        {
            "children" : [
                4
            ],
            "name" : "Glass"
        },
        {
            "mesh" : 3,
            "name" : "HourArm_QuartzClock_0"
        },
        {
            "children" : [
                6
            ],
            "name" : "HourArm",
            "rotation" : [
                -0.09584575146436691,
                0,
                0,
                0.9953961968421936
            ],
            "translation" : [
                0.018151620402932167,
                0,
                0.050170544534921646
            ]
        },
        {
            "mesh" : 4,
            "name" : "MinuteArm_QuartzClock_0"
        },
        {
            "children" : [
                8
            ],
            "name" : "MinuteArm",
            "rotation" : [
                -0.5,
                0,
                0,
                0.8660253882408142
            ],
            "translation" : [
                0.020052054896950722,
                0,
                0.050170544534921646
            ]
        },
        {
            "mesh" : 5,
            "name" : "SeecondArm_QuartzClock_0"
        },
        {
            "children" : [
                10
            ],
            "name" : "SeecondArm",
            "translation" : [
                0.021952250972390175,
                0,
                0.050170544534921646
            ]
        },
        {
            "children" : [
                1,
                3,
                5,
                7,
                9,
                11
            ],
            "name" : "QuartzRectClock",
            "rotation" : [
                -0.7071068286895752,
                0,
                0,
                0.7071067094802856
            ],
            "scale" : [
                100,
                100,
                100
            ]
        },
        {
            "children" : [
                12
            ],
            "name" : "RootNode"
        },
        {
            "children" : [
                13
            ],
            "name" : "Object_2"
        },
        {
            "children" : [
                14
            ],
            "name" : "QuartzClock_FBX.fbx",
            "rotation" : [
                0.7071068286895752,
                0,
                0,
                0.7071068286895752
            ],
            "scale" : [
                0.009999999776482582,
                0.009999999776482582,
                0.009999999776482582
            ]
        },
        {
            "children" : [
                15
            ],
            "name" : "Sketchfab_model",
            "rotation" : [
                -0.7071068286895752,
                0,
                0,
                0.7071068286895752
            ]
        }
    ],
    "animations" : [
        {
            "channels" : [
                {
                    "sampler" : 0,
                    "target" : {
                        "node" : 11,
                        "path" : "scale"
                    }
                },
                {
                    "sampler" : 1,
                    "target" : {
                        "node" : 11,
                        "path" : "rotation"
                    }
                }
            ],
            "name" : "SeecondArm|SeecondArmAction",
            "samplers" : [
                {
                    "input" : 37,
                    "interpolation" : "LINEAR",
                    "output" : 38
                },
                {
                    "input" : 37,
                    "interpolation" : "LINEAR",
                    "output" : 39
                }
            ]
        }
    ],
    "materials" : [
        {
            "alphaMode" : "BLEND",
            "doubleSided" : true,
            "name" : "QuartzClock.001",
            "pbrMetallicRoughness" : {
                "baseColorFactor" : [
                    0.800000011920929,
                    0.800000011920929,
                    0.800000011920929,
                    1
                ],
                "metallicFactor" : 0,
                "roughnessFactor" : 0.5
            }
        },
        {
            "doubleSided" : true,
            "name" : "Material",
            "pbrMetallicRoughness" : {
                "baseColorFactor" : [
                    0.8000000715255737,
                    0.060761708766222,
                    0.058214280754327774,
                    1
                ],
                "metallicFactor" : 0,
                "roughnessFactor" : 0.4000000059604645
            }
        }
    ],
    "meshes" : [
        {
            "name" : "AlarmArm_QuartzClock_0.001",
            "primitives" : [
                {
                    "attributes" : {
                        "POSITION" : 0,
                        "NORMAL" : 1,
                        "TEXCOORD_0" : 2,
                        "TEXCOORD_1" : 3,
                        "TEXCOORD_2" : 4
                    },
                    "indices" : 5,
                    "material" : 0
                }
            ]
        },
        {
            "name" : "Case_QuartzClock_0.001",
            "primitives" : [
                {
                    "attributes" : {
                        "POSITION" : 6,
                        "NORMAL" : 7,
                        "TEXCOORD_0" : 8,
                        "TEXCOORD_1" : 9,
                        "TEXCOORD_2" : 10,
                        "TEXCOORD_3" : 11
                    },
                    "indices" : 12,
                    "material" : 1
                }
            ]
        },
        {
            "name" : "Glass_QuartzClock_0.001",
            "primitives" : [
                {
                    "attributes" : {
                        "POSITION" : 13,
                        "NORMAL" : 14,
                        "TEXCOORD_0" : 15,
                        "TEXCOORD_1" : 16,
                        "TEXCOORD_2" : 17
                    },
                    "indices" : 18,
                    "material" : 0
                }
            ]
        },
        {
            "name" : "HourArm_QuartzClock_0.001",
            "primitives" : [
                {
                    "attributes" : {
                        "POSITION" : 19,
                        "NORMAL" : 20,
                        "TEXCOORD_0" : 21,
                        "TEXCOORD_1" : 22,
                        "TEXCOORD_2" : 23
                    },
                    "indices" : 24,
                    "material" : 0
                }
            ]
        },
        {
            "name" : "MinuteArm_QuartzClock_0.001",
            "primitives" : [
                {
                    "attributes" : {
                        "POSITION" : 25,
                        "NORMAL" : 26,
                        "TEXCOORD_0" : 27,
                        "TEXCOORD_1" : 28,
                        "TEXCOORD_2" : 29
                    },
                    "indices" : 30,
                    "material" : 0
                }
            ]
        },
        {
            "name" : "SeecondArm_QuartzClock_0.001",
            "primitives" : [
                {
                    "attributes" : {
                        "POSITION" : 31,
                        "NORMAL" : 32,
                        "TEXCOORD_0" : 33,
                        "TEXCOORD_1" : 34,
                        "TEXCOORD_2" : 35
                    },
                    "indices" : 36,
                    "material" : 0
                }
            ]
        }
    ],
    "accessors" : [
        {
            "bufferView" : 0,
            "componentType" : 5126,
            "count" : 315,
            "max" : [
                -0.00047505972906947136,
                0.003853724105283618,
                0.03531762585043907
            ],
            "min" : [
                -0.0011876665521413088,
                -0.0038537245709449053,
                -0.0038537245709449053
            ],
            "type" : "VEC3"
        },
        {
            "bufferView" : 1,
            "componentType" : 5126,
            "count" : 315,
            "type" : "VEC3"
        },
        {
            "bufferView" : 2,
            "componentType" : 5126,
            "count" : 315,
            "type" : "VEC2"
        },
        {
            "bufferView" : 3,
            "componentType" : 5126,
            "count" : 315,
            "type" : "VEC2"
        },
        {
            "bufferView" : 4,
            "componentType" : 5126,
            "count" : 315,
            "type" : "VEC2"
        },
        {
            "bufferView" : 5,
            "componentType" : 5123,
            "count" : 432,
            "type" : "SCALAR"
        },
        {
            "bufferView" : 6,
            "componentType" : 5126,
            "count" : 5623,
            "max" : [
                0.026310283690690994,
                0.06175834313035011,
                0.09767720103263855
            ],
            "min" : [
                -0.03165628761053085,
                -0.06175905838608742,
                0.0002884808636736125
            ],
            "type" : "VEC3"
        },
        {
            "bufferView" : 7,
            "componentType" : 5126,
            "count" : 5623,
            "type" : "VEC3"
        },
        {
            "bufferView" : 8,
            "componentType" : 5126,
            "count" : 5623,
            "type" : "VEC2"
        },
        {
            "bufferView" : 9,
            "componentType" : 5126,
            "count" : 5623,
            "type" : "VEC2"
        },
        {
            "bufferView" : 10,
            "componentType" : 5126,
            "count" : 5623,
            "type" : "VEC2"
        },
        {
            "bufferView" : 11,
            "componentType" : 5126,
            "count" : 5623,
            "type" : "VEC2"
        },
        {
            "bufferView" : 12,
            "componentType" : 5123,
            "count" : 8766,
            "type" : "SCALAR"
        },
        {
            "bufferView" : 13,
            "componentType" : 5126,
            "count" : 1600,
            "max" : [
                0.027814071625471115,
                0.05522507429122925,
                0.08991114795207977
            ],
            "min" : [
                0.023410238325595856,
                -0.05522578954696655,
                0.01042993739247322
            ],
            "type" : "VEC3"
        },
        {
            "bufferView" : 14,
            "componentType" : 5126,
            "count" : 1600,
            "type" : "VEC3"
        },
        {
            "bufferView" : 15,
            "componentType" : 5126,
            "count" : 1600,
            "type" : "VEC2"
        },
        {
            "bufferView" : 16,
            "componentType" : 5126,
            "count" : 1600,
            "type" : "VEC2"
        },
        {
            "bufferView" : 17,
            "componentType" : 5126,
            "count" : 1600,
            "type" : "VEC2"
        },
        {
            "bufferView" : 18,
            "componentType" : 5123,
            "count" : 7788,
            "type" : "SCALAR"
        },
        {
            "bufferView" : 19,
            "componentType" : 5126,
            "count" : 416,
            "max" : [
                -0.00047506135888397694,
                0.0030829794704914093,
                0.028644276782870293
            ],
            "min" : [
                -0.0011876666685566306,
                -0.0030829799361526966,
                -0.0030674943700432777
            ],
            "type" : "VEC3"
        },
        {
            "bufferView" : 20,
            "componentType" : 5126,
            "count" : 416,
            "type" : "VEC3"
        },
        {
            "bufferView" : 21,
            "componentType" : 5126,
            "count" : 416,
            "type" : "VEC2"
        },
        {
            "bufferView" : 22,
            "componentType" : 5126,
            "count" : 416,
            "type" : "VEC2"
        },
        {
            "bufferView" : 23,
            "componentType" : 5126,
            "count" : 416,
            "type" : "VEC2"
        },
        {
            "bufferView" : 24,
            "componentType" : 5123,
            "count" : 576,
            "type" : "SCALAR"
        },
        {
            "bufferView" : 25,
            "componentType" : 5126,
            "count" : 422,
            "max" : [
                -0.000475061300676316,
                0.0030829794704914093,
                0.032919883728027344
            ],
            "min" : [
                -0.001187666435725987,
                -0.0030829799361526966,
                -0.0030674943700432777
            ],
            "type" : "VEC3"
        },
        {
            "bufferView" : 26,
            "componentType" : 5126,
            "count" : 422,
            "type" : "VEC3"
        },
        {
            "bufferView" : 27,
            "componentType" : 5126,
            "count" : 422,
            "type" : "VEC2"
        },
        {
            "bufferView" : 28,
            "componentType" : 5126,
            "count" : 422,
            "type" : "VEC2"
        },
        {
            "bufferView" : 29,
            "componentType" : 5126,
            "count" : 422,
            "type" : "VEC2"
        },
        {
            "bufferView" : 30,
            "componentType" : 5123,
            "count" : 600,
            "type" : "SCALAR"
        },
        {
            "bufferView" : 31,
            "componentType" : 5126,
            "count" : 1257,
            "max" : [
                -5.918021073192392e-10,
                0.003941908944398165,
                0.03531762585043907
            ],
            "min" : [
                -0.0011876665521413088,
                -0.003941909410059452,
                -0.008700808510184288
            ],
            "type" : "VEC3"
        },
        {
            "bufferView" : 32,
            "componentType" : 5126,
            "count" : 1257,
            "type" : "VEC3"
        },
        {
            "bufferView" : 33,
            "componentType" : 5126,
            "count" : 1257,
            "type" : "VEC2"
        },
        {
            "bufferView" : 34,
            "componentType" : 5126,
            "count" : 1257,
            "type" : "VEC2"
        },
        {
            "bufferView" : 35,
            "componentType" : 5126,
            "count" : 1257,
            "type" : "VEC2"
        },
        {
            "bufferView" : 36,
            "componentType" : 5123,
            "count" : 1560,
            "type" : "SCALAR"
        },
        {
            "bufferView" : 37,
            "componentType" : 5126,
            "count" : 1417,
            "max" : [
                59
            ],
            "min" : [
                0
            ],
            "type" : "SCALAR"
        },
        {
            "bufferView" : 38,
            "componentType" : 5126,
            "count" : 1417,
            "type" : "VEC3"
        },
        {
            "bufferView" : 39,
            "componentType" : 5126,
            "count" : 1417,
            "type" : "VEC4"
        }
    ],
    "bufferViews" : [
        {
            "buffer" : 0,
            "byteLength" : 3780,
            "byteOffset" : 0
        },
        {
            "buffer" : 0,
            "byteLength" : 3780,
            "byteOffset" : 3780
        },
        {
            "buffer" : 0,
            "byteLength" : 2520,
            "byteOffset" : 7560
        },
        {
            "buffer" : 0,
            "byteLength" : 2520,
            "byteOffset" : 10080
        },
        {
            "buffer" : 0,
            "byteLength" : 2520,
            "byteOffset" : 12600
        },
        {
            "buffer" : 0,
            "byteLength" : 864,
            "byteOffset" : 15120
        },
        {
            "buffer" : 0,
            "byteLength" : 67476,
            "byteOffset" : 15984
        },
        {
            "buffer" : 0,
            "byteLength" : 67476,
            "byteOffset" : 83460
        },
        {
            "buffer" : 0,
            "byteLength" : 44984,
            "byteOffset" : 150936
        },
        {
            "buffer" : 0,
            "byteLength" : 44984,
            "byteOffset" : 195920
        },
        {
            "buffer" : 0,
            "byteLength" : 44984,
            "byteOffset" : 240904
        },
        {
            "buffer" : 0,
            "byteLength" : 44984,
            "byteOffset" : 285888
        },
        {
            "buffer" : 0,
            "byteLength" : 17532,
            "byteOffset" : 330872
        },
        {
            "buffer" : 0,
            "byteLength" : 19200,
            "byteOffset" : 348404
        },
        {
            "buffer" : 0,
            "byteLength" : 19200,
            "byteOffset" : 367604
        },
        {
            "buffer" : 0,
            "byteLength" : 12800,
            "byteOffset" : 386804
        },
        {
            "buffer" : 0,
            "byteLength" : 12800,
            "byteOffset" : 399604
        },
        {
            "buffer" : 0,
            "byteLength" : 12800,
            "byteOffset" : 412404
        },
        {
            "buffer" : 0,
            "byteLength" : 15576,
            "byteOffset" : 425204
        },
        {
            "buffer" : 0,
            "byteLength" : 4992,
            "byteOffset" : 440780
        },
        {
            "buffer" : 0,
            "byteLength" : 4992,
            "byteOffset" : 445772
        },
        {
            "buffer" : 0,
            "byteLength" : 3328,
            "byteOffset" : 450764
        },
        {
            "buffer" : 0,
            "byteLength" : 3328,
            "byteOffset" : 454092
        },
        {
            "buffer" : 0,
            "byteLength" : 3328,
            "byteOffset" : 457420
        },
        {
            "buffer" : 0,
            "byteLength" : 1152,
            "byteOffset" : 460748
        },
        {
            "buffer" : 0,
            "byteLength" : 5064,
            "byteOffset" : 461900
        },
        {
            "buffer" : 0,
            "byteLength" : 5064,
            "byteOffset" : 466964
        },
        {
            "buffer" : 0,
            "byteLength" : 3376,
            "byteOffset" : 472028
        },
        {
            "buffer" : 0,
            "byteLength" : 3376,
            "byteOffset" : 475404
        },
        {
            "buffer" : 0,
            "byteLength" : 3376,
            "byteOffset" : 478780
        },
        {
            "buffer" : 0,
            "byteLength" : 1200,
            "byteOffset" : 482156
        },
        {
            "buffer" : 0,
            "byteLength" : 15084,
            "byteOffset" : 483356
        },
        {
            "buffer" : 0,
            "byteLength" : 15084,
            "byteOffset" : 498440
        },
        {
            "buffer" : 0,
            "byteLength" : 10056,
            "byteOffset" : 513524
        },
        {
            "buffer" : 0,
            "byteLength" : 10056,
            "byteOffset" : 523580
        },
        {
            "buffer" : 0,
            "byteLength" : 10056,
            "byteOffset" : 533636
        },
        {
            "buffer" : 0,
            "byteLength" : 3120,
            "byteOffset" : 543692
        },
        {
            "buffer" : 0,
            "byteLength" : 5668,
            "byteOffset" : 546812
        },
        {
            "buffer" : 0,
            "byteLength" : 17004,
            "byteOffset" : 552480
        },
        {
            "buffer" : 0,
            "byteLength" : 22672,
            "byteOffset" : 569484
        }
    ],
    "buffers" : [
        {
            "byteLength" : 592156,
            "uri" : "data:application/octet-stream;base64,"
        }
    ]
}
