{
    "asset" : {
        "generator" : "Khronos glTF Blender I/O v1.6.16",
        "version" : "2.0"
    },
    "scene" : 0,
    "scenes" : [
        {
            "name" : "Scene",
            "nodes" : [
                5
            ]
        }
    ],
    "nodes" : [
        {
            "mesh" : 0,
            "name" : "Hex dumbbell 10Kg_Hex dumbbell 10Kg_0"
        },
        {
            "children" : [
                0
            ],
            "name" : "Object_4",
            "translation" : [
                0,
                0,
                -1.27889883518219
            ]
        },
        {
            "children" : [
                1
            ],
            "name" : "Hex dumbbell 10Kg",
            "rotation" : [
                -0.7071068286895752,
                0,
                0,
                0.7071068286895752
            ]
        },
        {
            "children" : [
                2
            ],
            "name" : "RootNode"
        },
        {
            "children" : [
                3
            ],
            "name" : "Hex Dumbbell 10kg.fbx",
            "rotation" : [
                0.7071068286895752,
                0,
                0,
                0.7071068286895752
            ],
            "scale" : [
                0.009999999776482582,
                0.009999999776482582,
                0.009999999776482582
            ]
        },
        {
            "children" : [
                4
            ],
            "name" : "Sketchfab_model",
            "rotation" : [
                -0.7071068286895752,
                0,
                0,
                0.7071068286895752
            ]
        }
    ],
    "materials" : [
        {
            "doubleSided" : true,
            "name" : "Hex_dumbbell_10Kg",
            "pbrMetallicRoughness" : {
                "baseColorFactor" : [
                    0.21954408288002014,
                    0.8000000715255737,
                    0.7325019836425781,
                    1
                ],
                "metallicFactor" : 0,
                "roughnessFactor" : 0.4000000059604645
            }
        }
    ],
    "meshes" : [
        {
            "name" : "Hex dumbbell 10Kg_Hex dumbbell 10Kg_0",
            "primitives" : [
                {
                    "attributes" : {
                        "POSITION" : 0,
                        "NORMAL" : 1,
                        "TEXCOORD_0" : 2
                    },
                    "indices" : 3,
                    "material" : 0
                }
            ]
        }
    ],
    "accessors" : [
        {
            "bufferView" : 0,
            "componentType" : 5126,
            "count" : 11872,
            "max" : [
                13.859832763671875,
                5.48341178894043,
                4.783638000488281
            ],
            "min" : [
                -13.859809875488281,
                -5.484189987182617,
                -4.78291654586792
            ],
            "type" : "VEC3"
        },
        {
            "bufferView" : 1,
            "componentType" : 5126,
            "count" : 11872,
            "type" : "VEC3"
        },
        {
            "bufferView" : 2,
            "componentType" : 5126,
            "count" : 11872,
            "type" : "VEC2"
        },
        {
            "bufferView" : 3,
            "componentType" : 5123,
            "count" : 37644,
            "type" : "SCALAR"
        }
    ],
    "bufferViews" : [
        {
            "buffer" : 0,
            "byteLength" : 142464,
            "byteOffset" : 0
        },
        {
            "buffer" : 0,
            "byteLength" : 142464,
            "byteOffset" : 142464
        },
        {
            "buffer" : 0,
            "byteLength" : 94976,
            "byteOffset" : 284928
        },
        {
            "buffer" : 0,
            "byteLength" : 75288,
            "byteOffset" : 379904
        }
    ],
    "buffers" : [
        {
            "byteLength" : 455192,
            "uri" : "data:application/octet-stream;base64,"
        }
    ]
}
