{
    "asset" : {
        "generator" : "Khronos glTF Blender I/O v1.6.16",
        "version" : "2.0"
    },
    "scene" : 0,
    "scenes" : [
        {
            "name" : "Scene",
            "nodes" : [
                5
            ]
        }
    ],
    "nodes" : [
        {
            "mesh" : 0,
            "name" : "Hex dumbbell 10Kg_Hex dumbbell 10Kg_0"
        },
        {
            "children" : [
                0
            ],
            "name" : "Object_4",
            "translation" : [
                0,
                0,
                -1.27889883518219
            ]
        },
        {
            "children" : [
                1
            ],
            "name" : "Hex dumbbell 10Kg",
            "rotation" : [
                -0.7071068286895752,
                0,
                0,
                0.7071068286895752
            ]
        },
        {
            "children" : [
                2
            ],
            "name" : "RootNode.002"
        },
        {
            "children" : [
                3
            ],
            "name" : "Hex Dumbbell 10kg.fbx",
            "rotation" : [
                0.7071068286895752,
                0,
                0,
                0.7071068286895752
            ],
            "scale" : [
                0.009999999776482582,
                0.009999999776482582,
                0.009999999776482582
            ]
        },
        {
            "children" : [
                4
            ],
            "name" : "dumbell",
            "rotation" : [
                -0.68159019947052,
                -0.1882416158914566,
                -0.1882416158914566,
                0.68159019947052
            ],
            "scale" : [
                2,
                2,
                2
            ],
            "translation" : [
                1.2986493110656738,
                0.06684223562479019,
                0.9357913136482239
            ]
        }
    ],
    "materials" : [
        {
            "doubleSided" : true,
            "name" : "Hex_dumbbell_10Kg",
            "pbrMetallicRoughness" : {
                "metallicFactor" : 0,
                "roughnessFactor" : 0.5
            }
        }
    ],
    "meshes" : [
        {
            "name" : "Hex dumbbell 10Kg_Hex dumbbell 10Kg_0",
            "primitives" : [
                {
                    "attributes" : {
                        "POSITION" : 0,
                        "NORMAL" : 1,
                        "TEXCOORD_0" : 2
                    },
                    "indices" : 3,
                    "material" : 0
                }
            ]
        }
    ],
    "accessors" : [
        {
            "bufferView" : 0,
            "componentType" : 5126,
            "count" : 12114,
            "max" : [
                13.859821319580078,
                5.483801364898682,
                10.845454216003418
            ],
            "min" : [
                -13.859821319580078,
                -5.483800411224365,
                1.2788995504379272
            ],
            "type" : "VEC3"
        },
        {
            "bufferView" : 1,
            "componentType" : 5126,
            "count" : 12114,
            "type" : "VEC3"
        },
        {
            "bufferView" : 2,
            "componentType" : 5126,
            "count" : 12114,
            "type" : "VEC2"
        },
        {
            "bufferView" : 3,
            "componentType" : 5123,
            "count" : 37644,
            "type" : "SCALAR"
        }
    ],
    "bufferViews" : [
        {
            "buffer" : 0,
            "byteLength" : 145368,
            "byteOffset" : 0
        },
        {
            "buffer" : 0,
            "byteLength" : 145368,
            "byteOffset" : 145368
        },
        {
            "buffer" : 0,
            "byteLength" : 96912,
            "byteOffset" : 290736
        },
        {
            "buffer" : 0,
            "byteLength" : 75288,
            "byteOffset" : 387648
        }
    ],
    "buffers" : [
        {
            "byteLength" : 462936,
            "uri" : "data:application/octet-stream;base64,"
        }
    ]
}
