# Blender v2.93.0 OBJ File: ''
# www.blender.org
mtllib test-room1.mtl
o Cube
v 1.000000 1.000000 -2.000000
v 1.000000 -1.000000 -2.000000
v 1.000000 1.000000 2.000000
v 1.000000 -1.000000 2.000000
v -1.000000 1.000000 -2.000000
v -1.000000 -1.000000 -2.000000
v -1.000000 1.000000 2.000000
v -1.000000 -1.000000 2.000000
v -0.057074 -0.937873 0.201725
v -0.057074 -0.607978 0.201725
v 1.000000 -1.000000 -2.000000
v 1.000000 1.000000 -2.000000
v -0.057074 -0.937873 -0.128170
v 1.000000 1.000000 2.000000
v 1.000000 -1.000000 2.000000
v -0.057074 -0.607978 -0.128170
v -0.950855 -0.950855 -1.901710
v -0.950855 -0.950855 1.901710
v 1.000000 -0.939810 -1.879620
v 1.000000 0.939810 -1.879620
v -0.950855 0.950855 1.901710
v 1.000000 0.939810 1.879620
v 1.000000 -0.939810 1.879620
v -0.950855 0.950855 -1.901710
v -0.386969 -0.607978 -0.128170
v -0.386969 -0.937873 -0.128170
v -0.386969 -0.607978 0.201725
v -0.386969 -0.937873 0.201725
vt 0.625000 0.500000
vt 0.625000 0.750000
vt 0.875000 0.750000
vt 0.875000 0.500000
vt 0.375000 0.750000
vt 0.375000 1.000000
vt 0.625000 1.000000
vt 0.375000 0.000000
vt 0.375000 0.250000
vt 0.625000 0.250000
vt 0.625000 0.000000
vt 0.125000 0.500000
vt 0.125000 0.750000
vt 0.375000 0.500000
vt 0.375000 0.000000
vt 0.625000 0.000000
vt 0.625000 0.250000
vt 0.375000 0.250000
vt 0.625000 0.750000
vt 0.625000 0.500000
vt 0.625000 0.500000
vt 0.625000 0.750000
vt 0.375000 0.500000
vt 0.375000 0.750000
vt 0.375000 0.750000
vt 0.375000 0.500000
vt 0.875000 0.500000
vt 0.875000 0.750000
vt 0.625000 1.000000
vt 0.375000 1.000000
vt 0.375000 0.000000
vt 0.625000 0.000000
vt 0.625000 0.250000
vt 0.375000 0.250000
vt 0.125000 0.500000
vt 0.125000 0.750000
vt 0.625000 0.500000
vt 0.375000 0.500000
vt 0.625000 0.750000
vt 0.375000 0.750000
vt 0.625000 1.000000
vt 0.375000 1.000000
vt 0.125000 0.500000
vt 0.125000 0.750000
vt 0.875000 0.500000
vt 0.875000 0.750000
vn 0.0000 -1.0000 0.0000
vn 0.0000 0.0000 -1.0000
vn 1.0000 0.0000 0.0000
vn 0.0000 1.0000 0.0000
vn 0.0000 0.0000 1.0000
vn -1.0000 0.0000 0.0000
vn 0.0057 1.0000 0.0000
vn 0.0113 0.0000 0.9999
vn 0.0057 -1.0000 0.0000
vn 0.0113 0.0000 -0.9999
usemtl Material
s off
f 1/1/1 3/2/1 7/3/1 5/4/1
f 4/5/2 8/6/2 7/7/2 3/2/2
f 8/8/3 6/9/3 5/10/3 7/11/3
f 6/12/4 8/13/4 4/5/4 2/14/4
f 6/9/5 2/14/5 1/1/5 5/10/5
f 16/15/6 13/16/6 9/17/6 10/18/6
f 14/19/6 12/20/6 20/21/6 22/22/6
f 11/23/6 15/24/6 23/25/6 19/26/6
f 12/20/6 11/23/6 19/26/6 20/21/6
f 15/24/6 14/19/6 22/22/6 23/25/6
f 2/14/5 4/5/5 15/24/5 11/23/5
f 3/2/5 1/1/5 12/20/5 14/19/5
f 4/5/5 3/2/5 14/19/5 15/24/5
f 1/1/5 2/14/5 11/23/5 12/20/5
f 20/21/7 24/27/7 21/28/7 22/22/7
f 23/25/8 22/22/8 21/29/8 18/30/8
f 18/31/6 21/32/6 24/33/6 17/34/6
f 17/35/9 19/26/9 23/25/9 18/36/9
f 17/34/10 24/33/10 20/21/10 19/26/10
f 10/18/2 9/17/2 28/37/2 27/38/2
f 27/38/3 28/37/3 26/39/3 25/40/3
f 25/40/5 26/39/5 13/41/5 16/42/5
f 10/43/1 27/38/1 25/40/1 16/44/1
f 28/37/4 9/45/4 13/46/4 26/39/4
