{
  "asset": {
    "generator": "Khronos glTF Blender I/O v1.6.16",
    "version": "2.0"
  },
  "scene": 0,
  "scenes": [
    {
      "name": "Scene",
      "nodes": [0]
    }
  ],
  "nodes": [
    {
      "mesh": 0,
      "name": "Cube.001"
    }
  ],
  "materials": [
    {
      "doubleSided": true,
      "name": "lower case",
      "pbrMetallicRoughness": {
        "baseColorFactor": [
          0.0062350002117455006, 0.0062350002117455006, 0.0062350002117455006, 1
        ],
        "metallicFactor": 0.2863636314868927,
        "roughnessFactor": 0.5
      }
    },
    {
      "doubleSided": true,
      "name": "top case",
      "pbrMetallicRoughness": {
        "baseColorFactor": [
          0.006142734549939632, 0.006181517615914345, 0.005524453707039356, 1
        ],
        "metallicFactor": 0.918181836605072,
        "roughnessFactor": 0.5
      }
    },
    {
      "doubleSided": true,
      "name": "keyboard",
      "pbrMetallicRoughness": {
        "baseColorFactor": [
          0.3700311779975891, 0.3700311779975891, 0.3700311779975891, 1
        ],
        "roughnessFactor": 0.5
      }
    },
    {
      "doubleSided": true,
      "name": "Screen all",
      "pbrMetallicRoughness": {
        "baseColorFactor": [
          0.0062350002117455006, 0.0062350002117455006, 0.0062350002117455006, 1
        ],
        "metallicFactor": 0,
        "roughnessFactor": 0.5
      }
    },
    {
      "doubleSided": true,
      "name": "only screen",
      "pbrMetallicRoughness": {
        "baseColorFactor": [
          0.5463309288024902, 0.8000000715255737, 0.8000000715255737, 1
        ],
        "metallicFactor": 0,
        "roughnessFactor": 0.5
      }
    }
  ],
  "meshes": [
    {
      "name": "Cube.001",
      "primitives": [
        {
          "attributes": {
            "POSITION": 0,
            "NORMAL": 1,
            "TEXCOORD_0": 2,
            "TEXCOORD_1": 3
          },
          "indices": 4,
          "material": 0
        },
        {
          "attributes": {
            "POSITION": 5,
            "NORMAL": 6,
            "TEXCOORD_0": 7,
            "TEXCOORD_1": 8
          },
          "indices": 9,
          "material": 1
        },
        {
          "attributes": {
            "POSITION": 10,
            "NORMAL": 11,
            "TEXCOORD_0": 12,
            "TEXCOORD_1": 13
          },
          "indices": 14,
          "material": 2
        },
        {
          "attributes": {
            "POSITION": 15,
            "NORMAL": 16,
            "TEXCOORD_0": 17,
            "TEXCOORD_1": 18
          },
          "indices": 19,
          "material": 3
        },
        {
          "attributes": {
            "POSITION": 20,
            "NORMAL": 21,
            "TEXCOORD_0": 22,
            "TEXCOORD_1": 23
          },
          "indices": 24,
          "material": 4
        }
      ]
    }
  ],
  "accessors": [
    {
      "bufferView": 0,
      "componentType": 5126,
      "count": 2677,
      "max": [1.7166228294372559, 0.07494548708200455, 2.5656850337982178],
      "min": [-1.6762562990188599, -0.03166661784052849, -2.5656850337982178],
      "type": "VEC3"
    },
    {
      "bufferView": 1,
      "componentType": 5126,
      "count": 2677,
      "type": "VEC3"
    },
    {
      "bufferView": 2,
      "componentType": 5126,
      "count": 2677,
      "type": "VEC2"
    },
    {
      "bufferView": 3,
      "componentType": 5126,
      "count": 2677,
      "type": "VEC2"
    },
    {
      "bufferView": 4,
      "componentType": 5123,
      "count": 9270,
      "type": "SCALAR"
    },
    {
      "bufferView": 5,
      "componentType": 5126,
      "count": 1193,
      "max": [1.7619104385375977, 0.07494548708200455, 2.6060516834259033],
      "min": [-1.7166228294372559, -0.07494548708200455, -2.6060516834259033],
      "type": "VEC3"
    },
    {
      "bufferView": 6,
      "componentType": 5126,
      "count": 1193,
      "type": "VEC3"
    },
    {
      "bufferView": 7,
      "componentType": 5126,
      "count": 1193,
      "type": "VEC2"
    },
    {
      "bufferView": 8,
      "componentType": 5126,
      "count": 1193,
      "type": "VEC2"
    },
    {
      "bufferView": 9,
      "componentType": 5123,
      "count": 2400,
      "type": "SCALAR"
    },
    {
      "bufferView": 10,
      "componentType": 5126,
      "count": 62016,
      "max": [1.2829453945159912, 0.056722577661275864, 2.173790693283081],
      "min": [-0.34022048115730286, 0.0002606138586997986, -2.139193534851074],
      "type": "VEC3"
    },
    {
      "bufferView": 11,
      "componentType": 5126,
      "count": 62016,
      "type": "VEC3"
    },
    {
      "bufferView": 12,
      "componentType": 5126,
      "count": 62016,
      "type": "VEC2"
    },
    {
      "bufferView": 13,
      "componentType": 5126,
      "count": 62016,
      "type": "VEC2"
    },
    {
      "bufferView": 14,
      "componentType": 5123,
      "count": 96696,
      "type": "SCALAR"
    },
    {
      "bufferView": 15,
      "componentType": 5126,
      "count": 673,
      "max": [1.78443443775177, 3.3914105892181396, 2.5935218334198],
      "min": [1.7138360738754272, -0.019634485244750977, -2.5935218334198],
      "type": "VEC3"
    },
    {
      "bufferView": 16,
      "componentType": 5126,
      "count": 673,
      "type": "VEC3"
    },
    {
      "bufferView": 17,
      "componentType": 5126,
      "count": 673,
      "type": "VEC2"
    },
    {
      "bufferView": 18,
      "componentType": 5126,
      "count": 673,
      "type": "VEC2"
    },
    {
      "bufferView": 19,
      "componentType": 5123,
      "count": 2190,
      "type": "SCALAR"
    },
    {
      "bufferView": 20,
      "componentType": 5126,
      "count": 4,
      "max": [1.7784473896026611, 3.1496942043304443, 2.2972826957702637],
      "min": [1.7784470319747925, 0.4658687114715576, -2.2744030952453613],
      "type": "VEC3"
    },
    {
      "bufferView": 21,
      "componentType": 5126,
      "count": 4,
      "type": "VEC3"
    },
    {
      "bufferView": 22,
      "componentType": 5126,
      "count": 4,
      "type": "VEC2"
    },
    {
      "bufferView": 23,
      "componentType": 5126,
      "count": 4,
      "type": "VEC2"
    },
    {
      "bufferView": 24,
      "componentType": 5123,
      "count": 6,
      "type": "SCALAR"
    }
  ],
  "bufferViews": [
    {
      "buffer": 0,
      "byteLength": 32124,
      "byteOffset": 0
    },
    {
      "buffer": 0,
      "byteLength": 32124,
      "byteOffset": 32124
    },
    {
      "buffer": 0,
      "byteLength": 21416,
      "byteOffset": 64248
    },
    {
      "buffer": 0,
      "byteLength": 21416,
      "byteOffset": 85664
    },
    {
      "buffer": 0,
      "byteLength": 18540,
      "byteOffset": 107080
    },
    {
      "buffer": 0,
      "byteLength": 14316,
      "byteOffset": 125620
    },
    {
      "buffer": 0,
      "byteLength": 14316,
      "byteOffset": 139936
    },
    {
      "buffer": 0,
      "byteLength": 9544,
      "byteOffset": 154252
    },
    {
      "buffer": 0,
      "byteLength": 9544,
      "byteOffset": 163796
    },
    {
      "buffer": 0,
      "byteLength": 4800,
      "byteOffset": 173340
    },
    {
      "buffer": 0,
      "byteLength": 744192,
      "byteOffset": 178140
    },
    {
      "buffer": 0,
      "byteLength": 744192,
      "byteOffset": 922332
    },
    {
      "buffer": 0,
      "byteLength": 496128,
      "byteOffset": 1666524
    },
    {
      "buffer": 0,
      "byteLength": 496128,
      "byteOffset": 2162652
    },
    {
      "buffer": 0,
      "byteLength": 193392,
      "byteOffset": 2658780
    },
    {
      "buffer": 0,
      "byteLength": 8076,
      "byteOffset": 2852172
    },
    {
      "buffer": 0,
      "byteLength": 8076,
      "byteOffset": 2860248
    },
    {
      "buffer": 0,
      "byteLength": 5384,
      "byteOffset": 2868324
    },
    {
      "buffer": 0,
      "byteLength": 5384,
      "byteOffset": 2873708
    },
    {
      "buffer": 0,
      "byteLength": 4380,
      "byteOffset": 2879092
    },
    {
      "buffer": 0,
      "byteLength": 48,
      "byteOffset": 2883472
    },
    {
      "buffer": 0,
      "byteLength": 48,
      "byteOffset": 2883520
    },
    {
      "buffer": 0,
      "byteLength": 32,
      "byteOffset": 2883568
    },
    {
      "buffer": 0,
      "byteLength": 32,
      "byteOffset": 2883600
    },
    {
      "buffer": 0,
      "byteLength": 12,
      "byteOffset": 2883632
    }
  ],
  "buffers": [
    {
      "byteLength": 2883644,
      "uri": "data:application/octet-stream;base64,"
    }
  ]
}
